<?xml version="1.0" standalone="no"?><!DOCTYPE svg PUBLIC "-//W3C//DTD SVG 1.1//EN" "http://www.w3.org/Graphics/SVG/1.1/DTD/svg11.dtd"><svg t="1531126715043" class="icon" style="" viewBox="0 0 1024 1024" version="1.1" xmlns="http://www.w3.org/2000/svg" p-id="1967" xmlns:xlink="http://www.w3.org/1999/xlink" width="48" height="48"><defs><style type="text/css"></style></defs><path d="M796.125571 617.531522c-19.244296 0-34.879392 15.636119-34.879392 34.898835l0 174.425611L199.524754 826.855968 199.524754 198.969611l376.713804 0L576.238558 345.491709c-0.132006 0.970094-0.203638 1.954515-0.203638 2.951215 0 4.817726 1.585101 9.342786 4.361331 13.275351 5.358031 8.293897 15.029298 14.128789 23.77345 14.128789 0.99977 0 1.967818-0.063445 2.915399-0.167822 1.258667 0.107447 2.536776 0.167822 3.831258 0.167822l185.210235 0c19.278065 0 34.880415-12.263301 34.880415-27.40414 0-7.724938-4.067642-14.6957-10.605545-19.676132l-0.001023-0.001023L607.59573 137.770783c-5.734608-6.492878-16.188704-10.659781-26.674523-8.565073L164.642293 129.205711c-19.247366 0-34.882462 15.618723-34.882462 34.898835l0 697.632861c0 19.246343 15.635095 34.898835 34.882462 34.898835 1.400906 0 2.780323-0.093121 4.13825-0.25378 1.357927 0.160659 2.737344 0.25378 4.13825 0.25378l619.591437 0c0.606821 0 1.209548-0.016373 1.808182-0.047072 0.598634 0.030699 1.201361 0.047072 1.808182 0.047072 19.246343 0 34.881438-15.652492 34.881438-34.898835l0-209.30705C831.007009 633.16764 815.371914 617.531522 796.125571 617.531522zM632.035352 230.099608l99.166557 90.939175-99.166557 0L632.035352 230.099608z" p-id="1968" fill="#909399"></path><path d="M304.168046 478.039537l139.526777 0c19.246343 0 34.881438-15.636119 34.881438-34.899858 0-19.262716-15.635095-34.863019-34.881438-34.863019L304.168046 408.27666c-19.246343 0-34.881438 15.600303-34.881438 34.863019C269.286608 462.403418 284.921703 478.039537 304.168046 478.039537z" p-id="1969" fill="#909399"></path><path d="M304.168046 617.531522l174.409239 0c19.24532 0 34.880415-15.601326 34.880415-34.848693 0-19.262716-15.635095-34.880415-34.880415-34.880415L304.168046 547.802414c-19.246343 0-34.881438 15.617699-34.881438 34.880415C269.286608 601.930195 284.921703 617.531522 304.168046 617.531522z" p-id="1970" fill="#909399"></path><path d="M693.783695 601.121783c17.765619-14.408151 30.28884-28.399817 37.564547-41.971927 7.272637-13.56904 10.912537-28.399817 10.912537-44.490284 0-25.042349-8.886391-44.909839-26.65201-59.5994-17.768689-14.68956-42.672892-22.034852-74.709539-22.034852-28.541033 0-55.333236 6.997368-80.375585 20.985964l0 64.636113c22.664186-19.586081 47.145763-29.380144 73.449849-29.380144 13.56904 0 23.992437 3.079128 31.269168 9.233292 7.272637 6.158257 10.912537 14.411221 10.912537 24.762987 0 8.954953-2.449795 17.313318-7.345292 25.078165-4.898567 7.764847-14.762215 17.732873-29.589922 29.9051-12.873192 10.634198-22.034852 21.231557-27.491121 31.7931-5.456269 10.564613-8.184403 23.330358-8.184403 38.299281l0 19.726274 55.402821 0 0-14.479783c0-9.512654 2.062985-17.661242 6.191003-24.448832C669.263232 622.35334 678.812725 613.014648 693.783695 601.121783z" p-id="1971" fill="#909399"></path><path d="M658.737504 708.98849c-7.55507-6.853082-16.650215-10.283204-27.281343-10.283204-10.774391 0-19.86749 3.462868-27.281343 10.387581-7.416923 6.925736-11.122315 15.214517-11.122315 24.868387 0 9.374508 3.705392 17.523095 11.122315 24.448832 7.413853 6.925736 16.506952 10.387581 27.281343 10.387581 10.631128 0 19.726274-3.430122 27.281343-10.283204s11.332093-15.037485 11.332093-24.553209C670.07062 724.170261 666.292574 715.844641 658.737504 708.98849z" p-id="1972" fill="#909399"></path></svg>