<?xml version="1.0" standalone="no"?><!DOCTYPE svg PUBLIC "-//W3C//DTD SVG 1.1//EN" "http://www.w3.org/Graphics/SVG/1.1/DTD/svg11.dtd"><svg t="1536823063956" class="icon" style="" viewBox="0 0 1024 1024" version="1.1" xmlns="http://www.w3.org/2000/svg" p-id="1873" xmlns:xlink="http://www.w3.org/1999/xlink" width="48" height="48"><defs><style type="text/css"></style></defs><path d="M575.374222 662.983111H306.744889c-12.856889 0-21.219556-6.314667-23.324445-17.635555-0.341333-2.275556-0.341333-4.664889-0.341333-6.997334v-248.604444c0-15.644444 7.964444-24.007111 22.755556-24.007111h269.539555v-7.566223-221.297777c0-10.069333 4.551111-18.204444 12.174222-21.276445 8.760889-3.584 16.497778-1.934222 23.153778 5.575111 3.811556 4.323556 7.964444 8.248889 11.832889 12.458667l147.342222 158.094222 189.326223 202.922667c10.467556 11.264 10.524444 23.096889 0.170666 34.247111l-270.904889 290.531556c-25.713778 27.591111-51.541333 54.954667-77.198222 82.488888-6.599111 7.111111-13.937778 10.24-22.983111 6.542223-8.760889-3.584-12.913778-10.979556-12.913778-22.641778v-214.243556-8.533333z m-162.190222-544.995555v83.626666h-205.368889c-41.813333 0.056889-72.647111 33.28-72.647111 78.336 0 155.932444 0.227556 311.921778-0.170667 467.854222-0.170667 41.301333 29.070222 70.997333 56.092445 76.458667 5.973333 1.137778 12.117333 1.706667 18.204444 1.706667 65.422222 0.170667 130.958222 0.113778 196.380445 0.113778h7.395555v83.228444c-0.910222 0.227556-2.048 0.625778-3.128889 0.625778-69.575111 0-139.207111 0.796444-208.782222-0.284445-68.039111-1.080889-128.284444-56.547556-141.255111-128.341333a175.331556 175.331556 0 0 1-2.730667-30.890667c-0.170667-157.639111-0.568889-315.335111 0.056889-472.974222 0.284444-65.820444 30.72-113.095111 83.911111-143.815111 18.773333-10.865778 39.480889-15.758222 60.871111-15.815111 69.006222-0.227556 138.012444-0.113778 207.075556-0.056889l4.096 0.170667z" p-id="1874" fill="#909399"></path></svg>