<?xml version="1.0" standalone="no"?><!DOCTYPE svg PUBLIC "-//W3C//DTD SVG 1.1//EN" "http://www.w3.org/Graphics/SVG/1.1/DTD/svg11.dtd"><svg t="1533616947626" class="icon" style="" viewBox="0 0 1024 1024" version="1.1" xmlns="http://www.w3.org/2000/svg" p-id="14820" xmlns:xlink="http://www.w3.org/1999/xlink" width="48" height="48"><defs><style type="text/css"></style></defs><path d="M176 272a208 208 0 1 0 416 0 208 208 0 1 0-416 0zM384 512C172.8 512 0 681.6 0 896h768c0-214.4-172.8-384-384-384z m313.6-128H960c16 0 32-16 32-32s-16-32-32-32H697.6c-16 0-32 16-32 32s16 32 32 32zM960 448H697.6c-16 0-32 16-32 32s16 32 32 32H960c16 0 32-16 32-32s-16-32-32-32z m0 128H761.6c-16 0-32 16-32 32s16 32 32 32H960c16 0 32-16 32-32s-16-32-32-32z" fill="#1ab394" p-id="14821"></path></svg>