<?xml version="1.0" standalone="no"?><!DOCTYPE svg PUBLIC "-//W3C//DTD SVG 1.1//EN" "http://www.w3.org/Graphics/SVG/1.1/DTD/svg11.dtd"><svg t="1530792552689" class="icon" style="" viewBox="0 0 1024 1024" version="1.1" xmlns="http://www.w3.org/2000/svg" p-id="1575" xmlns:xlink="http://www.w3.org/1999/xlink" width="48" height="48"><defs><style type="text/css"></style></defs><path d="M716.955 465.278l259.712 0c23.774 0 43.114-19.36 43.114-43.242 0-24.049-19.303-43.242-43.114-43.242L716.955 378.794c-23.774 0-43.114 19.36-43.114 43.242C673.841 446.084 693.144 465.278 716.955 465.278z" p-id="1576" fill="#909399"></path><path d="M976.412 508.521 760.452 508.521c-23.974 0-43.369 19.36-43.369 43.242 0 24.049 19.417 43.242 43.369 43.242l215.959 0c23.974 0 43.369-19.36 43.369-43.242C1019.781 527.714 1000.364 508.521 976.412 508.521z" p-id="1577" fill="#909399"></path><path d="M976.354 638.248 803.753 638.248c-23.926 0-43.427 19.36-43.427 43.242 0 24.049 19.443 43.242 43.427 43.242l172.601 0c23.926 0 43.427-19.36 43.427-43.242C1019.781 657.442 1000.338 638.248 976.354 638.248z" p-id="1578" fill="#909399"></path><path d="M565.886 573.384 176.4 573.384c-95.536 0-172.818 77.44-172.818 172.968l0 129.843c0 47.633 38.723 86.372 86.49 86.372l562.143 0c47.744 0 86.49-38.67 86.49-86.372L738.705 746.352C738.704 650.739 661.331 573.384 565.886 573.384z" p-id="1579" fill="#909399"></path><path d="M371.143 292.308m-237.834 0a237.834 237.834 0 1 0 475.668 0 237.834 237.834 0 1 0-475.668 0Z" p-id="1580" fill="#909399"></path></svg>