<?xml version="1.0" standalone="no"?><!DOCTYPE svg PUBLIC "-//W3C//DTD SVG 1.1//EN" "http://www.w3.org/Graphics/SVG/1.1/DTD/svg11.dtd"><svg t="1530792722587" class="icon" style="" viewBox="0 0 1026 1024" version="1.1" xmlns="http://www.w3.org/2000/svg" p-id="6315" xmlns:xlink="http://www.w3.org/1999/xlink" width="48.09375" height="48"><defs><style type="text/css"></style></defs><path d="M514.730667 1024h-5.461334a512 512 0 1 1 5.461334 0zM514.730667 30.72a481.28 481.28 0 1 0 5.461333 0z" p-id="6316"></path><path d="M592.554667 656.725333L480.597333 769.365333a124.245333 124.245333 0 0 1-175.445333-176.128L354.304 546.133333l5.461333-4.778666a27.989333 27.989333 0 0 1 32.768 44.373333L344.064 632.149333a68.266667 68.266667 0 0 0 95.573333 94.890667L548.864 614.4a68.266667 68.266667 0 0 0 8.192-97.621333l-6.826667-6.144L548.864 508.586667a25.258667 25.258667 0 0 1 37.546667-34.816l10.24 8.192a121.514667 121.514667 0 0 1 0 174.762666z" p-id="6317"></path><path d="M753.664 493.568l-51.882667 47.786667-6.144 8.192a27.306667 27.306667 0 0 1-30.72-45.738667l49.152-49.152a68.266667 68.266667 0 0 0-94.890666-95.573333L506.538667 467.626667a62.805333 62.805333 0 0 0-10.24 90.794666 51.882667 51.882667 0 0 1 12.970666 15.701334 23.893333 23.893333 0 0 1-33.450666 31.402666h-6.826667l-6.826667-6.144a114.005333 114.005333 0 0 1 6.826667-168.618666l109.226667-112.64A125.610667 125.610667 0 0 1 753.664 493.568z" p-id="6318"></path></svg>