<svg height="48" viewBox="0 0 1024 1024" width="48" xmlns="http://www.w3.org/2000/svg"><path d="m915.170362 129.49019h-806.929126c-24.40483 0-44.26004 19.854187-44.26004 44.26004v551.086204c0 24.405853 19.85521 44.26004 44.26004 44.26004h83.661422v90.520643c0 12.888542 7.058766 24.672936 18.422581 30.754444 5.16872 2.765997 10.822486 4.137227 16.46295 4.137227 6.759961-.001023 13.498432-1.970888 19.34458-5.867638l179.315992-119.543653h489.722624c24.40483 0 44.26004-19.854187 44.26004-44.26004v-551.087228c-.001023-24.404829-19.856233-44.260039-44.261063-44.260039zm-19.70069 575.646575h-489.388003l-150.21828 100.145861v-100.145861h-127.921462v-511.685845h767.527744zm-639.312594-383.764383h543.371498v63.960731h-543.371498zm0 190.372815h383.76336v63.960731h-383.76336z" fill="#515151"/></svg>