<?xml version="1.0" standalone="no"?><!DOCTYPE svg PUBLIC "-//W3C//DTD SVG 1.1//EN" "http://www.w3.org/Graphics/SVG/1.1/DTD/svg11.dtd"><svg t="1531368817470" class="icon" style="" viewBox="0 0 1024 1024" version="1.1" xmlns="http://www.w3.org/2000/svg" p-id="2290" xmlns:xlink="http://www.w3.org/1999/xlink" width="48" height="48"><defs><style type="text/css"></style></defs><path d="M512 162.2c47.4 0 93.4 9.3 136.6 27.6 41.8 17.7 79.3 43 111.6 75.3s57.6 69.8 75.3 111.6c18.3 43.2 27.6 89.2 27.6 136.6 0 47.4-9.3 93.4-27.6 136.6-17.7 41.8-43 79.3-75.3 111.6s-69.8 57.6-111.6 75.3c-43.2 18.3-89.2 27.6-136.6 27.6-47.4 0-93.4-9.3-136.6-27.6-41.8-17.7-79.3-43-111.6-75.3s-57.6-69.8-75.3-111.6c-18.3-43.2-27.6-89.2-27.6-136.6 0-47.4 9.3-93.4 27.6-136.6 17.7-41.8 43-79.3 75.3-111.6s69.8-57.6 111.6-75.3c43.2-18.4 89.2-27.6 136.6-27.6m0-64c-229.2 0-415 185.8-415 415s185.8 415 415 415 415-185.8 415-415c0.1-229.2-185.8-415-415-415z" fill="#999999" p-id="2291"></path></svg>