<?xml version="1.0" standalone="no"?><!DOCTYPE svg PUBLIC "-//W3C//DTD SVG 1.1//EN" "http://www.w3.org/Graphics/SVG/1.1/DTD/svg11.dtd"><svg t="1534128623404" class="icon" style="" viewBox="0 0 1024 1024" version="1.1" xmlns="http://www.w3.org/2000/svg" p-id="2220" xmlns:xlink="http://www.w3.org/1999/xlink" width="48" height="48"><defs><style type="text/css"></style></defs><path d="M600.615424 728.548147l-3.25632-6.895411L419.984998 514.130637 255.895142 653.453312 255.895142 466.656151l184.845619-162.669466 5.686784 7.355904 166.340301 194.619699 196.961075-206.306406L703.534285 194.856038l316.997632-2.481664 0 315.334651L913.518592 402.089574 600.615424 728.548147zM191.93641 768.430285l735.59699 0c52.98217 0 95.947776 42.94615 95.947776 95.940608s-42.965606 95.947776-95.947776 95.947776L95.989729 960.318669C42.994278 960.318669 0.041984 917.366374 0.041984 864.370893L0.041984 224.721657c0-52.994458 42.952294-95.947776 95.947776-95.947776s95.947776 42.952294 95.947776 95.947776l0 479.730538 3.895914 0-3.89591 3.30752L191.937539 768.430321z" p-id="2221" fill="#909399"></path></svg>