<?xml version="1.0" standalone="no"?><!DOCTYPE svg PUBLIC "-//W3C//DTD SVG 1.1//EN" "http://www.w3.org/Graphics/SVG/1.1/DTD/svg11.dtd"><svg t="1528795925576" class="icon" style="" viewBox="0 0 1024 1024" version="1.1" xmlns="http://www.w3.org/2000/svg" p-id="1970" xmlns:xlink="http://www.w3.org/1999/xlink" width="200" height="200"><defs><style type="text/css"></style></defs><path d="M660.992 217.6h129.024v129.024c0 13.824 11.264 25.6 25.6 25.6 13.824 0 25.6-11.264 25.6-25.6v-129.024h129.024c14.336 0 26.112-11.776 25.6-26.112 0-13.824-11.264-25.6-25.6-25.6h-129.024v-129.024c0-13.824-11.264-25.6-25.6-25.6-13.824 0-25.6 11.264-25.6 25.6v129.536h-129.024c-13.824 0-25.6 11.264-25.6 25.6 0 13.824 11.264 25.6 25.6 25.6zM270.336 605.184c0 133.632 108.544 242.176 242.176 242.176 133.632 0 242.176-108.544 242.176-242.176 0-133.632-108.544-242.176-242.176-242.176-133.632 0-242.176 108.544-242.176 242.176z m423.424 0c0 100.352-81.408 181.76-181.76 181.76s-181.76-81.408-181.76-181.76 81.408-181.76 181.76-181.76 181.76 81.408 181.76 181.76z" fill="#018EFB" p-id="1971"></path><path d="M902.144 290.304v64c19.968 9.728 33.28 30.208 33.28 54.272v455.168c0 33.28-27.136 60.416-60.416 60.416h-725.504c-33.28 0-60.416-27.136-60.416-60.416v-442.88c0-33.28 27.136-73.216 60.416-73.216h120.832l30.208-60.416c21.504-35.328 27.136-60.416 60.416-60.416h218.624v-60.928h-248.832c-33.28 0-44.544 28.672-60.416 60.416l-30.208 60.416h-90.624c-67.072 0.512-121.344 67.584-121.344 134.144v441.856c0 67.072 54.272 121.344 121.344 121.344h725.504c67.072 0 120.832-54.272 120.832-120.832v-455.168c0.512-57.344-39.936-105.472-93.696-117.76z" fill="#018EFB" p-id="1972"></path></svg>